<svg viewBox="0 0 512 512" xmlns="http://www.w3.org/2000/svg"><path d="M512 256c0 141.4-114.6 256-256 256S0 397.4 0 256 114.6 0 256 0s256 114.6 256 256z" fill="#410093"/><path d="M241.5 274.2l76.7-134c.1-.1.1-.3-.1-.4-.1-.1-.3-.2-.4-.1-4.1 2-9.5 3.1-15.2 3.1-5.6 0-11-1.1-15.1-3.1-.2-.1-.4 0-.5.1l-59.1 102.3-59.1-102.3c-.1-.2-.3-.2-.5-.2-4.1 2-9.5 3.1-15.1 3.1s-11-1.1-15.1-3.1c-.1-.1-.3-.1-.4.1-.1.1-.1.3-.1.4L214 273.8 212.6 374c0 .1.1.3.1.3.1 0 .1.1.2.1h.2c4.1-1.9 9.3-2.9 14.7-2.9 5.3 0 10.5 1 14.5 2.8.1 0 .1.1.2 0 .2 0 .4-.2.4-.3v-.1l-1.4-99.7zm120.9-135.3c-8.9-1.3-17.3 4.9-18.6 13.9-.1.5-.4 3.6-.8 8.7-1.6 41-5.3 96.2-13.8 157.8-.1.8-.1 1.4-.2 1.7 0 .1 0 .2.1.3 0 0 .1.1.2.1h.1c2.3-.4 4.7-.4 7.2-.1 2 .3 3.8.8 5.6 1.5.1.1.2.1.3 0l.2-.2c.1-.3.2-.8.3-1.4 9.3-61.6 21.6-115.7 31.8-155.5.9-4.6 1.5-7.5 1.6-8.2 1.2-8.9-5.1-17.3-14-18.6zm-29.5 202.6c-9-1.3-17.3 4.9-18.6 13.9-1.3 9 4.9 17.3 13.9 18.6 8.9 1.3 17.3-4.9 18.6-13.9 1.3-8.9-5-17.3-13.9-18.6z" fill="#FFF"/></svg>